<svg xmlns:xlink="http://www.w3.org/1999/xlink" xmlns="http://www.w3.org/2000/svg" xml:space="preserve" viewBox="0 0 180 28" width="257"  height="40" >
  <title>Bahne</title>
  <path fill="#272321" d="M62.98 22.17h-19v-1.48h19v1.48zm6.87-10.75-.01-.07c0-2.1-1.8-3.8-4.01-3.8h-.08v-.04H37.02v5.96h26.05v1.5H41.03V15a3.9 3.9 0 0 0-4 3.7h-.04v5.58h.04a3.91 3.91 0 0 0 4 3.73h24.82c2.21 0 4.01-1.7 4.01-3.8v-.07h.01V11.42h-.02zM154.01 13.34h19v1.48h-19v-1.48zm-6.89 10.76.01.07c0 2.1 1.8 3.8 4 3.8h.09V28h28.73v-5.96H153.9v-1.5h22.05v-.02a3.9 3.9 0 0 0 4-3.7h.04v-5.58h-.04a3.91 3.91 0 0 0-4-3.73h-24.82c-2.21 0-4 1.7-4 3.8v.07h-.01V24.1zM106.93 11.42v-.07c0-2.1-1.8-3.8-4.01-3.8h-.08v-.04h-21.9V0h-6.99v27.99h6.99V13.52h16.73c1.54.03 1.62.31 1.63 2.16V28h7.63V11.42zM143.58 11.42v-.07a3.9 3.9 0 0 0-4.01-3.8h-.08v-.04h-28.88v20.47h6.99V13.52h16.72c1.54.03 1.63.31 1.63 2.16V28h7.63V11.42h-.01.01zM26.03 19.5a2.64 2.64 0 0 1-2.7 2.57H9.7A2.64 2.64 0 0 1 7 19.5v-3.12a2.64 2.64 0 0 1 2.7-2.57h13.62c1.49 0 2.7 1.15 2.7 2.57v3.12zm6.84-8.08-.01-.07c0-2.1-1.8-3.8-4-3.8h-.08v-.04H6.99V0H0v24.27h.04a3.91 3.91 0 0 0 4.5 3.7h23.82a3.9 3.9 0 0 0 4.5-3.77v-.07h.01V11.42z"></path>
</svg>