<svg xmlns:xlink="http://www.w3.org/1999/xlink" xmlns="http://www.w3.org/2000/svg" id="Layer_2" data-name="Layer 2" viewBox="0 0 169.3 41.9" width="169.3"  height="41.9" >
  <defs>
    <style>
      .cls-1 {
        fill: #212121;
        stroke-width: 0px;
      }
    </style>
  </defs>
  <g id="Layer_1-2" data-name="Layer 1">
    <g>
      <path class="cls-1" d="m36.49,27.01c0,5.52-3.05,10.08-7.22,12.64-2.34,1.44-5.02,2.25-7.72,2.25s-4.86-.91-6.46-1.98c0,.98,0,1.57,0,1.57h-3.92s.05-18.5.05-23.93v-2.83c0-8.09-2.09-11.7-5.69-11.7-2.1,0-4,.45-5.53.74V0c.17,0,.35,0,.52,0,5.69,0,12.69,6.69,14.31,14.73.18.79.31,2.83.31,2.83v.52c0,.34,0,1.1,0,2.15,2.51-3.41,6.37-5.49,10.34-5.49,5.95,0,11.02,5.06,11.02,12.27Zm-3.86,1.88c0-6.11-3.24-12.43-9.72-12.43-2.87,0-5.98,1.65-7.78,4.33,0,3.76-.02,10.38-.04,15.13,1.15,1.2,2.73,2.72,4.63,3.73,1.23.66,2.58,1.1,4.02,1.1,1.68,0,3.15-.37,4.39-1.1,2.9-1.71,4.5-5.37,4.5-10.76Z"/>
      <path class="cls-1" d="m66.63,27.95c0,4.42-2.49,9.04-6.43,11.7-2.07,1.4-4.53,2.25-7.25,2.25-2.9,0-5.51-.79-7.63-2.25-3.27-2.23-5.33-6.02-5.33-10.81,0-7.53,5.75-14.1,13.79-14.1,7.37,0,12.85,5.17,12.85,13.21Zm-4.23.84c0-6.53-3.5-13.53-9.25-13.53-6.11,0-8.83,5.07-8.83,12.69,0,4.5,1.69,9.26,4.79,11.7,1.32,1.05,2.9,1.67,4.72,1.67,1.93,0,3.55-.58,4.85-1.67,2.43-2.03,3.72-5.82,3.72-10.86Z"/>
      <path class="cls-1" d="m83.58,38.16c-1.63,1.9-3.72,3.29-6.04,3.29-3.5,0-5.01-2.2-5.01-7.21V15.5h-5.79v-.31h.01,0c1.31,0,2.54-.22,3.65-.56,4.85-1.58,5.87-5.97,5.87-5.97h.18v6.53h6.63v.31h-6.63v18.58c0,3.76,1.2,5.75,3.4,5.75,1.23,0,2.45-.67,3.48-1.95l.26.28Z"/>
      <path class="cls-1" d="m109.92,39.43c-1.33,1.2-3.11,2.41-4.39,2.41-1.99,0-2.98-1.36-2.98-3.71,0-1.25.11-2.87.21-3.97-1.1,2.3-5.9,7.73-10.24,7.73s-6.79-2.66-6.79-5.85c0-3.44,3.29-6.83,12.59-10.52.15-.06.31-.12.47-.18l.72-.28c.08-.03.16-.06.23-.09,1.79-.76,3.07-2.52,3.14-4.58,0-.06,0-.11,0-.17v-.13c0-.1,0-.2-.02-.3,0-.02,0-.04,0-.05-.01-.11-.02-.22-.04-.33,0-.02,0-.05-.01-.07h0c-.02-.11-.04-.22-.07-.33-.02-.09-.05-.19-.08-.28-.2-.68-.53-1.3-1-1.83-.03-.04-.07-.08-.11-.13-.11-.13-.2-.21-.23-.25-.01-.01-.02-.02-.02-.02,0,0-.01-.01-.02-.02-.42-.45-.91-.77-1.47-.98-.65-.25-1.41-.36-2.28-.36-.37,0-.72.02-1.05.07-.01,0-.02,0-.04,0-.21.03-.4.07-.59.13-.71.18-1.3.49-1.83.89-1.77,1.36-2.45,3.55-3.24,4.7l-2.61-2.72c1.57-1.02,4.44-2.52,7.36-3.19.18-.05,2.79-.72,5.59-.15h-.03c3.18.6,5.54,2.43,5.73,4.59,0,.01,0,.02,0,.04,0,.02.01.03.01.05.36,2.99-3.68,4.47-3.68,4.47l-4.28,1.83c-7.68,3.24-9.51,4.81-9.51,8.67,0,2.82,2.51,5.07,5.7,5.07,3.6,0,7.26-4.81,7.73-6.53,0,0,.55-1.54,2.33-1.65,1.78-.11,1.66,1.78,1.66,1.78-.05,1.02-.08,1.87-.08,2.43,0,2.98.37,4.44,1.47,4.44.44,0,.96-.39,1.44-.93l.29.3Z"/>
      <path class="cls-1" d="m135.88,25.34v16.15h-3.92v-16.67c-.06-6.48-3.13-8.51-6.32-8.51s-5.43,1.41-7.88,4.74v20.42h-3.97V15.17h3.97v5.18c2.65-3.5,5.61-5.61,9.6-5.61,4.7,0,8.51,2.4,8.51,10.6Z"/>
      <path class="cls-1" d="m169.3,29.48c-1.74,3.79-4.41,7.55-7.94,9.91-.11.07-.22.15-.33.21-2.21,1.4-4.72,2.25-7.55,2.25-3.13,0-5.82-.81-7.93-2.25-3.28-2.21-5.18-5.9-5.18-10.28,0-7.42,6.56-13.91,13.38-14.57,0,0,1.85-.16,2.94,0,0,0,0,0,0,0,.9.1,2.15.34,3.4.94.08.04.15.08.23.11.09.05.19.1.28.15.32.18.62.37.89.58.01,0,.02.01.02.02.57.44,1.02.91,1.38,1.42,0,.01.02.02.03.04.82,1.12,1.42,2.61,1.58,4.61,0,.03,0,.06,0,.09v.02c.02.49-.05,2.52-2.99,2.52h-17.9c-.08.68-.12,1.38-.12,2.12,0,6.42,5.59,11.44,12.64,11.44,6.09,0,9.89-3.58,12.73-9.34h.44Zm-25.64-4.58h14.82c.85,0,1.54-.68,1.54-1.53v-.02c-.02-2.08-.48-3.59-1.14-4.68-.01-.01-.02-.03-.03-.04-.64-1.04-1.47-1.69-2.29-2.11-.05-.02-.09-.05-.14-.07-.14-.07-.27-.12-.41-.18-.74-.28-1.61-.45-2.6-.45-4.12,0-7.46,1.99-8.98,5.99,0,.02-.02.05-.03.08-.13.33-.24.67-.33,1.03h0c-.18.59-.35,1.24-.35,1.55h0c-.02.14-.04.27-.06.41Zm6.77-12.36h-.78l9.45-8.41,3.39.99-12.07,7.42Z"/>
    </g>
  </g>
</svg>