<svg width="176" height="29" viewBox="0 0 176 29" fill="none" xmlns="http://www.w3.org/2000/svg">
<g clip-path="url(#clip0_182_755)">
<path d="M130.976 7.11394C128.896 5.00422 126.381 3.94775 123.427 3.94775C120.474 3.94775 117.959 5.001 115.879 7.11394C113.799 9.22366 112.757 11.7843 112.757 14.7927C112.757 17.801 113.596 20.3971 115.272 22.4714C116.949 24.5489 119.112 25.5861 121.757 25.5861C122.789 25.5861 123.675 25.4218 124.418 25.0965C125.161 24.7712 125.717 24.3943 126.089 23.9691C126.46 23.544 126.749 23.0447 126.959 22.4714C127.168 21.8981 127.289 21.4504 127.321 21.1218C127.353 20.7965 127.368 20.4841 127.368 20.191H128.724V25.5893H134.094V14.7927C134.094 11.7843 133.053 9.22366 130.973 7.11394H130.976ZM127.178 18.5708C126.146 19.6176 124.895 20.1427 123.427 20.1427C121.96 20.1427 120.709 19.6209 119.677 18.5708C118.645 17.524 118.127 16.2582 118.127 14.7669C118.127 13.2756 118.642 12.0098 119.677 10.963C120.709 9.91616 121.957 9.39115 123.427 9.39115C124.898 9.39115 126.146 9.91616 127.178 10.963C128.21 12.0098 128.728 13.2788 128.728 14.7669C128.728 16.255 128.21 17.524 127.178 18.5708Z" fill="white"/>
<path d="M34.7573 3.94775C31.823 3.94775 29.3142 5.001 27.2342 7.11394C25.1542 9.22366 24.1125 11.7843 24.1125 14.7927V32.7269H29.4825V20.191H30.7877C30.7877 20.4841 30.8131 20.7965 30.8608 21.1218C30.9084 21.4504 31.0386 21.8981 31.2482 22.4714C31.4578 23.0447 31.7404 23.544 32.0961 23.9691C32.4518 24.3943 33.0075 24.7712 33.7665 25.0965C34.5255 25.425 35.4019 25.5861 36.4023 25.5861C39.0476 25.5861 41.2165 24.5489 42.9091 22.4714C44.6017 20.3939 45.4496 17.8332 45.4496 14.7927C45.4496 11.7521 44.4017 9.22366 42.3058 7.11394C40.2098 5.00422 37.6916 3.94775 34.7573 3.94775ZM38.5077 18.5708C37.4597 19.6176 36.2085 20.1427 34.7573 20.1427C33.306 20.1427 32.0548 19.6209 31.0069 18.5708C29.9589 17.524 29.4349 16.2582 29.4349 14.7669C29.4349 13.2756 29.9589 12.0098 31.0069 10.963C32.0548 9.91616 33.306 9.39115 34.7573 9.39115C36.2085 9.39115 37.4597 9.91616 38.5077 10.963C39.5557 12.0098 40.0796 13.2788 40.0796 14.7669C40.0796 16.255 39.5557 17.524 38.5077 18.5708Z" fill="white"/>
<path d="M18.2186 7.11394C16.1386 5.00422 13.6235 3.94775 10.6701 3.94775C7.71679 3.94775 5.20169 5.001 3.12165 7.11394C1.04161 9.22366 0 11.7843 0 14.7927C0 17.801 0.838367 20.3971 2.5151 22.4714C4.19184 24.5489 6.35444 25.5861 8.99975 25.5861C10.0318 25.5861 10.9178 25.4218 11.6609 25.0965C12.4009 24.7712 12.9598 24.3943 13.3313 23.9691C13.7029 23.544 13.9918 23.0447 14.2014 22.4714C14.411 21.8981 14.5317 21.4504 14.5635 21.1218C14.5952 20.7965 14.6111 20.4841 14.6111 20.191H15.9671V25.5893H21.3371V14.7927C21.3371 11.7843 20.2955 9.22366 18.2154 7.11394H18.2186ZM14.4174 18.5708C13.3853 19.6176 12.1341 20.1427 10.667 20.1427C9.19981 20.1427 7.94861 19.6209 6.91653 18.5708C5.88445 17.524 5.36682 16.2582 5.36682 14.7669C5.36682 13.2756 5.88128 12.0098 6.91653 10.963C7.94861 9.91616 9.19664 9.39115 10.667 9.39115C12.1373 9.39115 13.3853 9.91616 14.4174 10.963C15.4495 12.0098 15.9671 13.2788 15.9671 14.7669C15.9671 16.255 15.4495 17.524 14.4174 18.5708Z" fill="white"/>
<path d="M168.14 9.39427V3.94765H164.028V-3.22217H158.658V14.7926C158.658 17.8686 159.521 20.4357 161.246 22.4971C162.97 24.5585 165.269 25.5892 168.14 25.5892V20.1426C166.752 20.1426 165.72 19.6433 165.044 18.6448C164.368 17.6463 164.028 16.3483 164.028 14.7443V9.39427H168.14Z" fill="white"/>
<path d="M146.689 9.39437C147.626 9.39437 148.496 9.63272 149.302 10.1062C150.109 10.5797 150.754 11.2271 151.236 12.0452H156.994C156.381 9.6907 155.123 7.75169 153.218 6.22818C151.316 4.7079 149.137 3.94775 146.686 3.94775C143.717 3.94775 141.195 5.001 139.112 7.11394C137.029 9.22688 135.99 11.7746 135.99 14.7701C135.99 17.7656 137.032 20.3166 139.112 22.4263C141.192 24.536 143.717 25.5925 146.686 25.5925C149.137 25.5893 151.313 24.8291 153.218 23.3088C155.12 21.7886 156.378 19.8495 156.994 17.495H151.236C150.754 18.3132 150.106 18.9606 149.302 19.434C148.496 19.9075 147.626 20.1459 146.689 20.1459C145.206 20.1459 143.945 19.6241 142.916 18.5741C141.884 17.5272 141.367 16.2614 141.367 14.7701C141.367 13.2788 141.881 12.013 142.916 10.9662C143.948 9.91938 145.206 9.39437 146.689 9.39437Z" fill="white"/>
<path d="M101.605 14.7926V20.1683H99.4483C98.0605 20.1683 97.0284 19.6433 96.352 18.6448C95.6756 17.6463 95.3358 16.3483 95.3358 14.7443V9.39427H99.4483V3.94765H95.3358V-3.22217H89.9658V14.7926C89.9658 17.8686 90.8296 20.4357 92.554 22.4971C94.1196 24.3652 96.1424 25.5892 98.6639 25.5892H102.884H106.975V14.7926C106.975 13.2884 107.489 12.0129 108.524 10.9661C109.556 9.91928 110.798 9.39427 112.249 9.39427V3.94765C109.315 3.94765 106.806 5.0009 104.726 7.11384C102.646 9.22356 101.605 11.7842 101.605 14.7926Z" fill="white"/>
<path d="M58.0378 3.94775C55.1035 3.94775 52.5948 5.001 50.5147 7.11394C48.4347 9.22366 47.3931 11.7843 47.3931 14.7927V32.7269H52.7631V20.191H54.0682C54.0682 20.4841 54.0937 20.7965 54.1413 21.1218C54.1889 21.4504 54.3191 21.8981 54.5287 22.4714C54.7383 23.0447 55.0209 23.544 55.3766 23.9691C55.7323 24.3943 56.288 24.7712 57.047 25.0965C57.806 25.425 58.6824 25.5861 59.6828 25.5861C62.3281 25.5861 64.497 24.5489 66.1896 22.4714C67.8823 20.3939 68.7302 17.8332 68.7302 14.7927C68.7302 11.7521 67.6822 9.22366 65.5863 7.11394C63.4904 5.00422 60.9721 3.94775 58.0378 3.94775ZM61.7882 18.5708C60.7403 19.6176 59.4891 20.1427 58.0378 20.1427C56.5865 20.1427 55.3353 19.6209 54.2874 18.5708C53.2394 17.524 52.7154 16.2582 52.7154 14.7669C52.7154 13.2756 53.2394 12.0098 54.2874 10.963C55.3353 9.91616 56.5865 9.39115 58.0378 9.39115C59.4891 9.39115 60.7403 9.91616 61.7882 10.963C62.8362 12.0098 63.3602 13.2788 63.3602 14.7669C63.3602 16.255 62.8362 17.524 61.7882 18.5708Z" fill="white"/>
<path d="M174.647 22.2167C174.415 21.8173 173.987 21.5886 173.494 21.5886C172.685 21.5886 172.091 22.1909 172.091 23.0316C172.091 23.8722 172.659 24.4616 173.494 24.4616C174.006 24.4616 174.406 24.2265 174.653 23.8175L174.298 23.5276C174.129 23.8046 173.85 23.9817 173.494 23.9817C172.983 23.9817 172.602 23.5888 172.602 23.0219C172.602 22.455 172.983 22.0492 173.494 22.0492C173.844 22.0492 174.117 22.2199 174.291 22.4969L174.647 22.2134V22.2167ZM173.475 25.1252C172.297 25.1252 171.449 24.2458 171.449 23.0316C171.449 21.8173 172.297 20.9508 173.475 20.9508C174.653 20.9508 175.501 21.8237 175.501 23.0316C175.501 24.2394 174.653 25.1252 173.475 25.1252ZM173.475 25.6051C174.952 25.6051 176 24.5357 176 23.0316C176 21.5274 174.952 20.4741 173.475 20.4741C171.999 20.4741 170.96 21.5435 170.96 23.0316C170.96 24.5196 172.008 25.6051 173.475 25.6051Z" fill="white"/>
<path d="M78.8733 3.77686C74.3798 3.77686 70.2642 5.72875 70.2642 10.1447C70.2642 18.6351 82.284 15.3819 82.284 18.9475C82.284 20.2616 80.8041 21.1796 78.578 21.1796C75.7231 21.1796 73.4557 19.9073 72.1537 18.6318L69.3401 22.7063C72.1537 24.9997 75.1769 25.8468 78.6606 25.8468C84.3291 25.8468 87.6889 23.1734 87.6889 19.0119C87.6889 10.4796 75.6691 13.1788 75.6691 10.1672C75.6691 9.14939 76.9394 8.444 78.8702 8.444C81.0105 8.444 83.0683 9.37808 84.5387 10.5666L87.5619 6.62095C84.6657 4.49835 82.0204 3.77686 78.8702 3.77686" fill="white"/>
</g>
<defs>
<clipPath id="clip0_182_755">
<rect width="176" height="29" fill="white"/>
</clipPath>
</defs>
</svg>
