<svg width="40" height="40" viewBox="0 0 40 40" fill="none" xmlns="http://www.w3.org/2000/svg">
<rect width="40" height="40" rx="10" fill="url(#paint0_linear_182_747)" fill-opacity="0.8"/>
<mask id="mask0_182_747" style="mask-type:luminance" maskUnits="userSpaceOnUse" x="6" y="7" width="26" height="26">
<path d="M31.4127 7.29395H6.99902V32.5H31.4127V7.29395Z" fill="white"/>
</mask>
<g mask="url(#mask0_182_747)">
<path d="M27.8447 10.9817C25.4622 8.5219 22.5845 7.29395 19.2078 7.29395C15.831 7.29395 12.9496 8.5219 10.5708 10.9817C8.18838 13.4376 6.99902 16.4203 6.99902 19.926C6.99902 23.4317 7.95951 26.4532 9.87674 28.8704C11.794 31.2914 14.2665 32.5 17.2943 32.5C18.4761 32.5 19.4892 32.3102 20.3371 31.9306C21.185 31.5509 21.8228 31.1132 22.2468 30.6174C22.6708 30.1216 23.0009 29.5405 23.2448 28.8742C23.4849 28.208 23.6238 27.685 23.6613 27.3015C23.6988 26.9219 23.7176 26.5578 23.7176 26.2169H25.2671V32.5039H31.4127V19.9299C31.4127 16.4242 30.2234 13.4415 27.8409 10.9856M25.2671 19.8989C25.2671 21.6343 24.6743 23.1102 23.4962 24.3304C22.3143 25.5506 20.8849 26.1588 19.204 26.1588C17.5231 26.1588 16.0937 25.5506 14.9156 24.3304C13.7337 23.1102 13.1447 21.6343 13.1447 19.8989C13.1447 18.1635 13.7337 16.6876 14.9156 15.4674C16.0974 14.2472 17.5269 13.639 19.204 13.639C20.8811 13.639 22.3143 14.2511 23.4962 15.4674C24.6781 16.6876 25.2671 18.1635 25.2671 19.8989Z" fill="white"/>
</g>
<defs>
<linearGradient id="paint0_linear_182_747" x1="2.2" y1="1" x2="37.6" y2="38.8" gradientUnits="userSpaceOnUse">
<stop stop-color="#D53CFF"/>
<stop offset="1" stop-color="#00C3FF"/>
</linearGradient>
</defs>
</svg>
